<svg xmlns="http://www.w3.org/2000/svg" viewBox="0 0 155.82 156.86"><defs><style>.cls-1,.cls-2,.cls-3{fill:none;}.cls-1,.cls-2,.cls-3,.cls-4{stroke:#000;stroke-miterlimit:10;}.cls-1{stroke-width:2px;}.cls-2{stroke-linecap:round;}</style></defs><g id="Layer_2" data-name="Layer 2"><g id="Layer_1-2" data-name="Layer 1"><path class="cls-1" d="M46.76,69.77S44.18,77.4,40.39,81s22,28.71,22,28.71c6.24,4.58,25,4.58,31.42,0,0,0,27.14-25.47,23.36-29.07s-5.58-10.88-5.58-10.88S122.71,50.41,120.36,45c-2.4-5.61-25,12.7-25,12.7-6.44-.38-13-5-17.38-5.06s-10.94,4.68-17,4.88c0,0-22-18.3-24.43-12.7S46.76,69.77,46.76,69.77Z"/><path d="M73.67,83.05c2-.78,7.56-.92,8.78,0,1,.78-2.74,5.43-4.44,5.47S71.89,83.75,73.67,83.05Z"/><path class="cls-2" d="M69.81,92c3.2,4.85,8.07-1.35,8.2-3.8.1,2.7,4.3,8.48,8.2,3.8"/><path d="M69.9,86.47C68,86.29,66,86.09,64.09,86s-3.87-.22-5.8-.23a72.12,72.12,0,0,0-11.49.6,41.09,41.09,0,0,0-5.61,1.06,33.52,33.52,0,0,0-5.31,2,17.77,17.77,0,0,0-4.67,3.15,17.34,17.34,0,0,0-3.52,4.51l-.09,0a17.1,17.1,0,0,1,7.92-8.31,33.37,33.37,0,0,1,11.15-3.33A64.89,64.89,0,0,1,58.33,85a85.22,85.22,0,0,1,11.59,1.37Z"/><path d="M70,87c-1.8-.1-3.59-.2-5.39-.19s-3.57,0-5.35.06-3.56.17-5.32.38a48.36,48.36,0,0,0-5.23.88A29.91,29.91,0,0,0,39,91.79a19.81,19.81,0,0,0-7.24,7.54l-.09,0a18.91,18.91,0,0,1,2.84-4.59,19.16,19.16,0,0,1,4.06-3.56,29.4,29.4,0,0,1,10-4,53.25,53.25,0,0,1,10.75-1.06A67,67,0,0,1,70,86.9Z"/><path d="M70.12,87.53c-1.64,0-3.28,0-4.91.08s-3.26.17-4.87.37a44.88,44.88,0,0,0-9.44,2,29.37,29.37,0,0,0-4.45,1.75,30.69,30.69,0,0,0-4.05,2.51,23.72,23.72,0,0,0-6.25,7.29l-.09,0a22.68,22.68,0,0,1,2.45-4.28,22.09,22.09,0,0,1,3.4-3.57A25.53,25.53,0,0,1,46,90.89,30.22,30.22,0,0,1,50.59,89a41.09,41.09,0,0,1,9.69-1.79,51.56,51.56,0,0,1,9.86.22Z"/><path d="M85.9,86.37a55.79,55.79,0,0,1,5.73-1.28c1.93-.31,3.87-.54,5.83-.72a52.53,52.53,0,0,1,5.89-.17,53.33,53.33,0,0,1,5.91.4,32.43,32.43,0,0,1,11.34,3.57,18.58,18.58,0,0,1,4.67,3.74,15.58,15.58,0,0,1,3,5.12l-.09,0a17,17,0,0,0-7.9-8.22,33.34,33.34,0,0,0-11.11-3.26,64.43,64.43,0,0,0-11.62-.44,85,85,0,0,0-11.58,1.32Z"/><path d="M85.79,86.9a43.76,43.76,0,0,1,5.34-1c1.8-.21,3.61-.35,5.43-.41a48.89,48.89,0,0,1,10.91.9A35.05,35.05,0,0,1,112.75,88a21.22,21.22,0,0,1,4.9,2.62,19.68,19.68,0,0,1,4,3.82,17.68,17.68,0,0,1,2.53,4.85l-.09,0a18,18,0,0,0-6.89-8.06,28.83,28.83,0,0,0-10-3.93,52.67,52.67,0,0,0-10.7-1.11A67.78,67.78,0,0,0,85.81,87Z"/><path d="M85.68,87.43a36.73,36.73,0,0,1,4.92-.75c1.65-.11,3.31-.15,5-.1a34.74,34.74,0,0,1,5,.51,36.06,36.06,0,0,1,4.91,1.15,25.55,25.55,0,0,1,8.83,4.89,21.13,21.13,0,0,1,3.33,3.81,20.25,20.25,0,0,1,2.13,4.52l-.09,0a22.64,22.64,0,0,0-2.46-4.24,21,21,0,0,0-3.4-3.53,24.71,24.71,0,0,0-4.1-2.68,30.28,30.28,0,0,0-4.54-1.86,41.66,41.66,0,0,0-9.65-1.83,51.14,51.14,0,0,0-9.82.17Z"/><ellipse class="cls-3" cx="66.5" cy="74.3" rx="6.04" ry="5.24"/><ellipse class="cls-3" cx="89.38" cy="74.3" rx="6.04" ry="5.24"/><ellipse class="cls-4" cx="66.5" cy="74.3" rx="2.03" ry="4.48"/><ellipse class="cls-4" cx="89.38" cy="74.3" rx="2.03" ry="4.48"/><path d="M84.58,156.86l3.65-11.66-.9-1.48-.5-.06-2.64,6.22L64.4,155.76l6.72-10.39-.88-1.53h-.61l-4.21,5.54-20.28-.23,8.47-7.72-.42-1.65-4.84,4.06-19.64-4.62,9.89-6.28.07-1.8-.4-.28-6.46,3L14.71,124l11.07-3.06.26-2.22-.2-.22-6.61,1.33L5.11,106.41H16.46l1.09-1.59-.35-1.17-7.09-.33L0,85.23l11.49,3.65,1.26-1.1,0-.6L6.54,85l-1.45-4.5H4.93L.87,65.69l9.74,6.24,2.09-1.31v-.39L7.36,65.72,6.88,46.48l8.48,8,1.36-.31L12.91,48l4.31-19.36,5.91,10.82L25,39.42l.41-.59-2.3-6.58L32.5,14.62l3.19,11.79L37,26.9l.28-.18-.49-7.81L50.38,5.33l-.24,12.06,1.1.65,1.61-.59L53,11.52,71.25,0,67.58,11.67l.9,1.48.5,0L71.63,7,91.42,1.1,84.69,11.49,85.57,13h.61l4.21-5.56,20.29.25-8.47,7.71.42,1.65,4.83-4,19.67,4.62-9.91,6.27-.08,1.8.41.28L124,23l17.1,9.83L130,35.93l-.26,2.21.2.22L136.59,37l14.12,13.4H139.36l-1.1,1.6.35,1.17,7.1.32,10.11,18.11L144.33,68l-1.26,1.1,0,.6,6.25,2.18,1.45,4.5h.15L155,91.18l-9.74-6.24-2.09,1.29v.4l5.34,4.52.48,19.23-8.49-8-1.36.31,3.82,6.13L138.6,128.2l-5.9-10.84-1.89.08-.4.59,2.3,6.58-9.4,17.63-3.19-11.79-1.34-.49-.27.18L119,138l-13.58,13.55.26-12-1.11-.65-1.6.58-.17,5.94Zm-18.25-2.55,11-3.27Zm19.45-12.47,2.55.31L90.06,145l-2.52,8,13.61-8.6.17-6.18,3.42-1.25,2.63,1.55-.18,8.86,10.09-10.08-.51-8,1.79-1.19,3,1.08,2.32,8.55,7.06-13.25-2.35-6.7,1.37-2,3.76-.15,4.26,7.83,3.19-14.35-3.86-6.21.29-1.59,3.4-.77,6.22,5.85-.36-14.47-5.36-4.53V85.3L145.22,83l7,4.45L149.61,78h-.11l-1.56-4.87-6.65-2.33.15-2.56,2.5-2.18,8.35,2.66-7.59-13.6-7.35-.33-.92-3.07,2-3h8l-10.45-9.92-6.7,1.34L128,38.7l.47-4.08,8.3-2.3-12.88-7.41-6.53,3-1.95-1.36.15-3.59,7.28-4.61-15-3.52-5.18,4.35-1.42-.57-1-3.76,6.07-5.53L91.22,9.15,87,14.7H84.6l-1.87-3.27L87.55,4,72.86,8.36,70,15l-2.55-.29-1.73-2.83,2.53-8-13.62,8.6-.16,6.18-3.43,1.24-2.62-1.55.17-8.87L38.54,19.56l.5,8-1.79,1.2-3-1.08L32,19.14,24.93,32.39l2.34,6.69-1.37,2-3.75.15-4.26-7.82-3.2,14.33,3.87,6.22-.29,1.59-3.4.78L8.65,50.45,9,64.92l5.36,4.53v2.09L10.6,73.91l-7-4.46,2.57,9.37h.1l1.57,4.87L14.53,86l-.15,2.56-2.5,2.18L3.53,88.11l7.59,13.58,7.35.34.91,3.08-2,3h-8L19.75,118l6.7-1.33,1.34,1.49-.47,4.08-8.3,2.3L31.9,132l6.53-3,2,1.34-.15,3.6L33,138.5l15,3.52,5.18-4.35,1.43.57.94,3.75-6.06,5.53,15.19.17,4.2-5.52h2.41l1.88,3.25-4.82,7.45L83,148.5Zm-14.31,2.45.63,1.11-3.22,5,3.22-5Zm34.86,3.91,0,1.25Zm-59,.14,17.73.19,1.76-2.31L65,148.53Zm39-5.59-2.06,4.84Zm15.84-3.93-.18,6Zm15.49-9.11.5,7.92-6.85,6.84,6.85-6.84-.5-7.92.5-.33ZM87.12,142.85l.71.08.22.36-.22-.36ZM69.21,143h0Zm-15.82-4.32.43.18.54,2.16-.54-2.16Zm-.13-.05-2.67,2.24,2.67-2.24Zm68.37-5.82,1.94,7.17h0Zm-17,5.1-2,.74,2-.74.43.25Zm-65.25-4.5-3,1.88Zm-17.72-6.36,10.16,5.84,6.5-3-6.5,3Zm116.58-1.21h0L141,113.42ZM16.86,124.27l3.18-.88Zm112.62-6.37.59,1.7-.59-1.7.64-.93Zm-103.15-.12.58.66-.08.7.08-.7Zm104-1.16,2.82-.11ZM7.21,107.25l6.17,5.86Zm9.69,0,.54-.79Zm-1.5-4.52,2.43.11.25.81-.25-.81Zm122.74,0,.2.33Zm.13-.73-.06.37.06-.37ZM1.76,86.67,5,92.45ZM142.28,87l5.36,4.52L142.28,87V85.77l1.52-1-1.52,1Zm-130.6,2.8,1.88-1.64Zm141.88-.53h0l-1.63-6Zm-148-9.64H5.7L6,80.71,5.7,79.65H5.57L2.26,67.57ZM150.12,77.2h0l-1.51-4.68-1-.35,1,.35ZM10.6,72.92h0Zm139.43-4,4,1.29h0ZM8.18,65.32l5.36,4.52Zm134.07,3.36.33-.28ZM15.12,55.39h0l2-.46Zm-.06-5.48,2.61,4.2-.06.35.06-.35ZM138,54l7.23.33L138,54l-.5-1.66ZM7.77,48.47l4.62,4.36L7.77,48.47ZM137.34,51.9l1.58-2.29h9.7l-6.17-5.86,6.17,5.86h-9.7ZM22.64,40.35l2.81-.11.65-.94-.65.94Zm106.62-5.07-.18,1.53.18-1.53L139,32.59,124,24l-5.07,2.34L124,24l15,8.62ZM17.55,31l2.23,4.08L17.55,31Zm17.78-3.85,1.81.65ZM35,27.05l-1-3.5Zm82.35-.17.12.09Zm-85.1-10L28.77,23.4ZM53.67,18l-1.17.43Zm48.66.1.22.09,1.26-1.05-1.26,1.05Zm5.35-4.2L125,18ZM49.29,17.86l.21.12-.21-.12L49.5,7.4l0,1Zm52-2.71.29,1.13-.29-1.13,7.27-6.62-5.31-.06,5.31.06ZM68,13.93l.76.09L68,13.93l-.77-1.26Zm17.11-.07-1.38-2.4,5.19-8,0,0-5.16,8ZM72.25,7.67,70.49,11.8l1.76-4.13Z"/></g></g></svg>